<svg xmlns="http://www.w3.org/2000/svg" viewBox="0 0 128 128">
  <defs>
    <linearGradient id="bg" x1="0%" y1="0%" x2="100%" y2="100%">
      <stop offset="0%" style="stop-color:#6366f1;stop-opacity:1" />
      <stop offset="100%" style="stop-color:#8b5cf6;stop-opacity:1" />
    </linearGradient>
  </defs>
  <rect width="128" height="128" rx="16" fill="url(#bg)"/>
  <g fill="white">
    <rect x="20" y="30" width="8" height="68" rx="2"/>
    <rect x="34" y="30" width="8" height="52" rx="2"/>
    <rect x="48" y="30" width="8" height="68" rx="2"/>
    <rect x="62" y="30" width="8" height="52" rx="2"/>
    <rect x="76" y="30" width="8" height="68" rx="2"/>
    <rect x="90" y="30" width="8" height="52" rx="2"/>
    <rect x="104" y="30" width="8" height="68" rx="2"/>
    <rect x="28" y="30" width="6" height="32" rx="1" fill="#1e1b4b"/>
    <rect x="56" y="30" width="6" height="32" rx="1" fill="#1e1b4b"/>
    <rect x="84" y="30" width="6" height="32" rx="1" fill="#1e1b4b"/>
    <rect x="98" y="30" width="6" height="32" rx="1" fill="#1e1b4b"/>
    <circle cx="64" cy="110" r="6" fill="#22c55e"/>
  </g>
</svg>
